{
	"asset":{
		"generator":"Khronos glTF Blender I/O v5.0.21",
		"version":"2.0"
	},
	"scene":0,
	"scenes":[
		{
			"name":"Scene",
			"nodes":[
				13
			]
		}
	],
	"nodes":[
		{
			"mesh":0,
			"name":"Cube.001",
			"scale":[
				0.006273301783949137,
				0.03174407035112381,
				0.18932153284549713
			],
			"translation":[
				0.9955618381500244,
				-0.7859960794448853,
				-0.009397863410413265
			]
		},
		{
			"mesh":1,
			"name":"Cylinder",
			"rotation":[
				-1,
				0,
				0,
				7.549789415861596e-08
			],
			"scale":[
				0.14952298998832703,
				0.14993348717689514,
				0.2576734721660614
			],
			"translation":[
				-1.683500051498413,
				-1.0905699729919434,
				-0.49836355447769165
			]
		},
		{
			"mesh":2,
			"name":"Cylinder.001",
			"rotation":[
				-1,
				0,
				0,
				7.549789415861596e-08
			],
			"scale":[
				0.14952298998832703,
				0.14993348717689514,
				0.2576734721660614
			],
			"translation":[
				-1.6875971555709839,
				-1.0905699729919434,
				0.4956616461277008
			]
		},
		{
			"mesh":3,
			"name":"Cylinder.002",
			"rotation":[
				-1,
				0,
				0,
				7.549789415861596e-08
			],
			"scale":[
				0.14952298998832703,
				0.14993348717689514,
				0.2576734721660614
			],
			"translation":[
				-2.405562162399292,
				-1.0905699729919434,
				0.4956616461277008
			]
		},
		{
			"mesh":4,
			"name":"Cylinder.003",
			"rotation":[
				-1,
				0,
				0,
				7.549789415861596e-08
			],
			"scale":[
				0.14952298998832703,
				0.07048508524894714,
				0.2576734721660614
			],
			"translation":[
				0.7313443422317505,
				-1.169887661933899,
				0.47073596715927124
			]
		},
		{
			"mesh":5,
			"name":"Cylinder.004",
			"rotation":[
				-1,
				0,
				0,
				7.549789415861596e-08
			],
			"scale":[
				0.14952298998832703,
				0.07048508524894714,
				0.2576734721660614
			],
			"translation":[
				0.7313443422317505,
				-1.1698877811431885,
				-0.5186374187469482
			]
		},
		{
			"mesh":6,
			"name":"Cylinder.005",
			"rotation":[
				-1,
				0,
				0,
				7.549789415861596e-08
			],
			"scale":[
				0.14952298998832703,
				0.07048508524894714,
				0.2576734721660614
			],
			"translation":[
				-0.7435975074768066,
				-1.169887661933899,
				-0.4979081451892853
			]
		},
		{
			"mesh":7,
			"name":"Cylinder.006",
			"rotation":[
				-1,
				0,
				0,
				7.549789415861596e-08
			],
			"scale":[
				0.14952298998832703,
				0.14993348717689514,
				0.2576734721660614
			],
			"translation":[
				-2.4014647006988525,
				-1.0905699729919434,
				-0.4983634352684021
			]
		},
		{
			"mesh":8,
			"name":"Cylinder.007",
			"rotation":[
				-1,
				0,
				0,
				7.549789415861596e-08
			],
			"scale":[
				0.14952298998832703,
				0.07048508524894714,
				0.2576734721660614
			],
			"translation":[
				0.23281416296958923,
				-1.169887661933899,
				0.48447638750076294
			]
		},
		{
			"mesh":9,
			"name":"Cylinder.009",
			"rotation":[
				-1,
				0,
				0,
				7.549789415861596e-08
			],
			"scale":[
				0.14952298998832703,
				0.07048508524894714,
				0.2576734721660614
			],
			"translation":[
				0.23281416296958923,
				-1.1698877811431885,
				-0.5066111087799072
			]
		},
		{
			"mesh":10,
			"name":"Cylinder.011",
			"rotation":[
				-1,
				0,
				0,
				7.549789415861596e-08
			],
			"scale":[
				0.14952298998832703,
				0.07048508524894714,
				0.2576734721660614
			],
			"translation":[
				-0.7435975074768066,
				-1.1698877811431885,
				0.49146538972854614
			]
		},
		{
			"mesh":11,
			"name":"Cylinder.012",
			"rotation":[
				-1,
				0,
				0,
				7.549789415861596e-08
			],
			"scale":[
				0.14952298998832703,
				0.07048508524894714,
				0.2576734721660614
			],
			"translation":[
				-0.26222291588783264,
				-1.169887661933899,
				-0.5104734897613525
			]
		},
		{
			"mesh":12,
			"name":"Cylinder.013",
			"rotation":[
				-1,
				0,
				0,
				7.549789415861596e-08
			],
			"scale":[
				0.14952298998832703,
				0.07048508524894714,
				0.2576734721660614
			],
			"translation":[
				-0.26222291588783264,
				-1.169887661933899,
				0.4789000153541565
			]
		},
		{
			"children":[
				0,
				1,
				2,
				3,
				4,
				5,
				6,
				7,
				8,
				9,
				10,
				11,
				12
			],
			"mesh":13,
			"name":"Ship",
			"scale":[
				3.450223684310913,
				2.101851463317871,
				2.0020992755889893
			],
			"translation":[
				-0.14723660051822662,
				2.0818674564361572,
				-0.10321103781461716
			]
		}
	],
	"animations":[
		{
			"channels":[
				{
					"sampler":0,
					"target":{
						"node":13,
						"path":"translation"
					}
				},
				{
					"sampler":1,
					"target":{
						"node":13,
						"path":"rotation"
					}
				},
				{
					"sampler":2,
					"target":{
						"node":13,
						"path":"scale"
					}
				}
			],
			"name":"Ship|Ship|Ship|ShipAction",
			"samplers":[
				{
					"input":57,
					"interpolation":"STEP",
					"output":58
				},
				{
					"input":57,
					"interpolation":"STEP",
					"output":59
				},
				{
					"input":57,
					"interpolation":"STEP",
					"output":60
				}
			]
		}
	],
	"materials":[
		{
			"doubleSided":true,
			"name":"metal body",
			"pbrMetallicRoughness":{
				"baseColorFactor":[
					0.1068795770406723,
					0.15646551549434662,
					0.16679984331130981,
					1
				],
				"metallicFactor":0.6909871101379395,
				"roughnessFactor":0.5858368873596191
			}
		},
		{
			"doubleSided":true,
			"name":"metal body.003",
			"pbrMetallicRoughness":{
				"baseColorFactor":[
					0.1068795770406723,
					0.15646551549434662,
					0.16679984331130981,
					1
				],
				"metallicFactor":0.6909871101379395,
				"roughnessFactor":0.5858368873596191
			}
		},
		{
			"doubleSided":true,
			"name":"window.001",
			"pbrMetallicRoughness":{
				"baseColorFactor":[
					0,
					0,
					0,
					1
				],
				"metallicFactor":0,
				"roughnessFactor":0.4000000059604645
			}
		},
		{
			"doubleSided":true,
			"name":"texturepainting",
			"pbrMetallicRoughness":{
				"baseColorTexture":{
					"index":0
				},
				"metallicFactor":0,
				"roughnessFactor":0.5
			}
		},
		{
			"doubleSided":true,
			"name":"rubberarea",
			"pbrMetallicRoughness":{
				"baseColorFactor":[
					0.03495539352297783,
					0.06637194752693176,
					0.045289263129234314,
					1
				],
				"metallicFactor":0,
				"roughnessFactor":0.8562231659889221
			}
		}
	],
	"meshes":[
		{
			"name":"Cube.003",
			"primitives":[
				{
					"attributes":{
						"POSITION":0,
						"NORMAL":1,
						"TEXCOORD_0":2
					},
					"indices":3,
					"material":0
				}
			]
		},
		{
			"name":"Cylinder.001",
			"primitives":[
				{
					"attributes":{
						"POSITION":4,
						"NORMAL":5,
						"TEXCOORD_0":6
					},
					"indices":7,
					"material":0
				}
			]
		},
		{
			"name":"Cylinder.002",
			"primitives":[
				{
					"attributes":{
						"POSITION":8,
						"NORMAL":9,
						"TEXCOORD_0":10
					},
					"indices":7,
					"material":0
				}
			]
		},
		{
			"name":"Cylinder.017",
			"primitives":[
				{
					"attributes":{
						"POSITION":11,
						"NORMAL":12,
						"TEXCOORD_0":13
					},
					"indices":7,
					"material":1
				}
			]
		},
		{
			"name":"Cylinder.004",
			"primitives":[
				{
					"attributes":{
						"POSITION":14,
						"NORMAL":15,
						"TEXCOORD_0":16
					},
					"indices":7,
					"material":0
				}
			]
		},
		{
			"name":"Cylinder.005",
			"primitives":[
				{
					"attributes":{
						"POSITION":17,
						"NORMAL":18,
						"TEXCOORD_0":19
					},
					"indices":7,
					"material":0
				}
			]
		},
		{
			"name":"Cylinder.006",
			"primitives":[
				{
					"attributes":{
						"POSITION":20,
						"NORMAL":21,
						"TEXCOORD_0":22
					},
					"indices":7,
					"material":0
				}
			]
		},
		{
			"name":"Cylinder.018",
			"primitives":[
				{
					"attributes":{
						"POSITION":23,
						"NORMAL":24,
						"TEXCOORD_0":25
					},
					"indices":7,
					"material":1
				}
			]
		},
		{
			"name":"Cylinder.008",
			"primitives":[
				{
					"attributes":{
						"POSITION":26,
						"NORMAL":27,
						"TEXCOORD_0":28
					},
					"indices":7,
					"material":0
				}
			]
		},
		{
			"name":"Cylinder.010",
			"primitives":[
				{
					"attributes":{
						"POSITION":29,
						"NORMAL":30,
						"TEXCOORD_0":31
					},
					"indices":7,
					"material":0
				}
			]
		},
		{
			"name":"Cylinder.012",
			"primitives":[
				{
					"attributes":{
						"POSITION":32,
						"NORMAL":33,
						"TEXCOORD_0":34
					},
					"indices":7,
					"material":0
				}
			]
		},
		{
			"name":"Cylinder.013",
			"primitives":[
				{
					"attributes":{
						"POSITION":35,
						"NORMAL":36,
						"TEXCOORD_0":37
					},
					"indices":7,
					"material":0
				}
			]
		},
		{
			"name":"Cylinder.014",
			"primitives":[
				{
					"attributes":{
						"POSITION":38,
						"NORMAL":39,
						"TEXCOORD_0":40
					},
					"indices":7,
					"material":0
				}
			]
		},
		{
			"name":"Cube.001",
			"primitives":[
				{
					"attributes":{
						"POSITION":41,
						"NORMAL":42,
						"TEXCOORD_0":43
					},
					"indices":44,
					"material":0
				},
				{
					"attributes":{
						"POSITION":45,
						"NORMAL":46,
						"TEXCOORD_0":47
					},
					"indices":48,
					"material":2
				},
				{
					"attributes":{
						"POSITION":49,
						"NORMAL":50,
						"TEXCOORD_0":51
					},
					"indices":52,
					"material":3
				},
				{
					"attributes":{
						"POSITION":53,
						"NORMAL":54,
						"TEXCOORD_0":55
					},
					"indices":56,
					"material":4
				}
			]
		}
	],
	"textures":[
		{
			"sampler":0,
			"source":0
		}
	],
	"images":[
		{
			"mimeType":"image/png",
			"name":"Downloads",
			"uri":"../Downloads"
		}
	],
	"accessors":[
		{
			"bufferView":0,
			"componentType":5126,
			"count":154,
			"max":[
				1,
				1,
				1.3300000429153442
			],
			"min":[
				-9.232342720031738,
				-1,
				-1.3300000429153442
			],
			"type":"VEC3"
		},
		{
			"bufferView":1,
			"componentType":5126,
			"count":154,
			"type":"VEC3"
		},
		{
			"bufferView":2,
			"componentType":5126,
			"count":154,
			"type":"VEC2"
		},
		{
			"bufferView":3,
			"componentType":5123,
			"count":300,
			"type":"SCALAR"
		},
		{
			"bufferView":4,
			"componentType":5126,
			"count":1728,
			"max":[
				1.2046095132827759,
				1,
				1.2046093940734863
			],
			"min":[
				-1.2046090364456177,
				-0.9999998211860657,
				-1.2046091556549072
			],
			"type":"VEC3"
		},
		{
			"bufferView":5,
			"componentType":5126,
			"count":1728,
			"type":"VEC3"
		},
		{
			"bufferView":6,
			"componentType":5126,
			"count":1728,
			"type":"VEC2"
		},
		{
			"bufferView":7,
			"componentType":5123,
			"count":3444,
			"type":"SCALAR"
		},
		{
			"bufferView":8,
			"componentType":5126,
			"count":1728,
			"max":[
				1.2046095132827759,
				1,
				1.2046093940734863
			],
			"min":[
				-1.2046090364456177,
				-0.9999998211860657,
				-1.2046091556549072
			],
			"type":"VEC3"
		},
		{
			"bufferView":9,
			"componentType":5126,
			"count":1728,
			"type":"VEC3"
		},
		{
			"bufferView":10,
			"componentType":5126,
			"count":1728,
			"type":"VEC2"
		},
		{
			"bufferView":11,
			"componentType":5126,
			"count":1728,
			"max":[
				1.2046095132827759,
				1,
				1.2046093940734863
			],
			"min":[
				-1.2046090364456177,
				-0.9999998211860657,
				-1.2046091556549072
			],
			"type":"VEC3"
		},
		{
			"bufferView":12,
			"componentType":5126,
			"count":1728,
			"type":"VEC3"
		},
		{
			"bufferView":13,
			"componentType":5126,
			"count":1728,
			"type":"VEC2"
		},
		{
			"bufferView":14,
			"componentType":5126,
			"count":1728,
			"max":[
				1.2046095132827759,
				1,
				1.2046093940734863
			],
			"min":[
				-1.2046090364456177,
				-0.9999998211860657,
				-1.2046091556549072
			],
			"type":"VEC3"
		},
		{
			"bufferView":15,
			"componentType":5126,
			"count":1728,
			"type":"VEC3"
		},
		{
			"bufferView":16,
			"componentType":5126,
			"count":1728,
			"type":"VEC2"
		},
		{
			"bufferView":17,
			"componentType":5126,
			"count":1728,
			"max":[
				1.2046095132827759,
				1,
				1.2046093940734863
			],
			"min":[
				-1.2046090364456177,
				-0.9999998211860657,
				-1.2046091556549072
			],
			"type":"VEC3"
		},
		{
			"bufferView":18,
			"componentType":5126,
			"count":1728,
			"type":"VEC3"
		},
		{
			"bufferView":19,
			"componentType":5126,
			"count":1728,
			"type":"VEC2"
		},
		{
			"bufferView":20,
			"componentType":5126,
			"count":1728,
			"max":[
				1.2046095132827759,
				1,
				1.2046093940734863
			],
			"min":[
				-1.2046090364456177,
				-0.9999998211860657,
				-1.2046091556549072
			],
			"type":"VEC3"
		},
		{
			"bufferView":21,
			"componentType":5126,
			"count":1728,
			"type":"VEC3"
		},
		{
			"bufferView":22,
			"componentType":5126,
			"count":1728,
			"type":"VEC2"
		},
		{
			"bufferView":23,
			"componentType":5126,
			"count":1728,
			"max":[
				1.2046095132827759,
				1,
				1.2046093940734863
			],
			"min":[
				-1.2046090364456177,
				-0.9999998211860657,
				-1.2046091556549072
			],
			"type":"VEC3"
		},
		{
			"bufferView":24,
			"componentType":5126,
			"count":1728,
			"type":"VEC3"
		},
		{
			"bufferView":25,
			"componentType":5126,
			"count":1728,
			"type":"VEC2"
		},
		{
			"bufferView":26,
			"componentType":5126,
			"count":1728,
			"max":[
				1.2046095132827759,
				1,
				1.2046093940734863
			],
			"min":[
				-1.2046090364456177,
				-0.9999998211860657,
				-1.2046091556549072
			],
			"type":"VEC3"
		},
		{
			"bufferView":27,
			"componentType":5126,
			"count":1728,
			"type":"VEC3"
		},
		{
			"bufferView":28,
			"componentType":5126,
			"count":1728,
			"type":"VEC2"
		},
		{
			"bufferView":29,
			"componentType":5126,
			"count":1728,
			"max":[
				1.2046095132827759,
				1,
				1.2046093940734863
			],
			"min":[
				-1.2046090364456177,
				-0.9999998211860657,
				-1.2046091556549072
			],
			"type":"VEC3"
		},
		{
			"bufferView":30,
			"componentType":5126,
			"count":1728,
			"type":"VEC3"
		},
		{
			"bufferView":31,
			"componentType":5126,
			"count":1728,
			"type":"VEC2"
		},
		{
			"bufferView":32,
			"componentType":5126,
			"count":1728,
			"max":[
				1.2046095132827759,
				1,
				1.2046093940734863
			],
			"min":[
				-1.2046090364456177,
				-0.9999998211860657,
				-1.2046091556549072
			],
			"type":"VEC3"
		},
		{
			"bufferView":33,
			"componentType":5126,
			"count":1728,
			"type":"VEC3"
		},
		{
			"bufferView":34,
			"componentType":5126,
			"count":1728,
			"type":"VEC2"
		},
		{
			"bufferView":35,
			"componentType":5126,
			"count":1728,
			"max":[
				1.2046095132827759,
				1,
				1.2046093940734863
			],
			"min":[
				-1.2046090364456177,
				-0.9999998211860657,
				-1.2046091556549072
			],
			"type":"VEC3"
		},
		{
			"bufferView":36,
			"componentType":5126,
			"count":1728,
			"type":"VEC3"
		},
		{
			"bufferView":37,
			"componentType":5126,
			"count":1728,
			"type":"VEC2"
		},
		{
			"bufferView":38,
			"componentType":5126,
			"count":1728,
			"max":[
				1.2046095132827759,
				1,
				1.2046093940734863
			],
			"min":[
				-1.2046090364456177,
				-0.9999998211860657,
				-1.2046091556549072
			],
			"type":"VEC3"
		},
		{
			"bufferView":39,
			"componentType":5126,
			"count":1728,
			"type":"VEC3"
		},
		{
			"bufferView":40,
			"componentType":5126,
			"count":1728,
			"type":"VEC2"
		},
		{
			"bufferView":41,
			"componentType":5126,
			"count":339,
			"max":[
				1.0601500272750854,
				1,
				1.0037322044372559
			],
			"min":[
				-2.997891426086426,
				-1.1070023775100708,
				-1.0037322044372559
			],
			"type":"VEC3"
		},
		{
			"bufferView":42,
			"componentType":5126,
			"count":339,
			"type":"VEC3"
		},
		{
			"bufferView":43,
			"componentType":5126,
			"count":339,
			"type":"VEC2"
		},
		{
			"bufferView":44,
			"componentType":5123,
			"count":684,
			"type":"SCALAR"
		},
		{
			"bufferView":45,
			"componentType":5126,
			"count":72,
			"max":[
				-1.5046827793121338,
				0.795107364654541,
				0.8896905183792114
			],
			"min":[
				-2.9125890731811523,
				-0.07850246876478195,
				-0.8891310095787048
			],
			"type":"VEC3"
		},
		{
			"bufferView":46,
			"componentType":5126,
			"count":72,
			"type":"VEC3"
		},
		{
			"bufferView":47,
			"componentType":5126,
			"count":72,
			"type":"VEC2"
		},
		{
			"bufferView":48,
			"componentType":5123,
			"count":108,
			"type":"SCALAR"
		},
		{
			"bufferView":49,
			"componentType":5126,
			"count":76,
			"max":[
				1.0601500272750854,
				0.8877027034759521,
				0.9438513517379761
			],
			"min":[
				-2.9591705799102783,
				-1.1070023775100708,
				-0.9438513517379761
			],
			"type":"VEC3"
		},
		{
			"bufferView":50,
			"componentType":5126,
			"count":76,
			"type":"VEC3"
		},
		{
			"bufferView":51,
			"componentType":5126,
			"count":76,
			"type":"VEC2"
		},
		{
			"bufferView":52,
			"componentType":5123,
			"count":114,
			"type":"SCALAR"
		},
		{
			"bufferView":53,
			"componentType":5126,
			"count":344,
			"max":[
				1.0021498203277588,
				1.3778090476989746,
				2.4188601970672607
			],
			"min":[
				-1.261109471321106,
				-0.9506659507751465,
				-2.425380229949951
			],
			"type":"VEC3"
		},
		{
			"bufferView":54,
			"componentType":5126,
			"count":344,
			"type":"VEC3"
		},
		{
			"bufferView":55,
			"componentType":5126,
			"count":344,
			"type":"VEC2"
		},
		{
			"bufferView":56,
			"componentType":5123,
			"count":528,
			"type":"SCALAR"
		},
		{
			"bufferView":57,
			"componentType":5126,
			"count":2,
			"max":[
				6.666666666666667
			],
			"min":[
				0.041666666666666664
			],
			"type":"SCALAR"
		},
		{
			"bufferView":58,
			"componentType":5126,
			"count":2,
			"type":"VEC3"
		},
		{
			"bufferView":59,
			"componentType":5126,
			"count":2,
			"type":"VEC4"
		},
		{
			"bufferView":60,
			"componentType":5126,
			"count":2,
			"type":"VEC3"
		}
	],
	"bufferViews":[
		{
			"buffer":0,
			"byteLength":1848,
			"byteOffset":0,
			"target":34962
		},
		{
			"buffer":0,
			"byteLength":1848,
			"byteOffset":1848,
			"target":34962
		},
		{
			"buffer":0,
			"byteLength":1232,
			"byteOffset":3696,
			"target":34962
		},
		{
			"buffer":0,
			"byteLength":600,
			"byteOffset":4928,
			"target":34963
		},
		{
			"buffer":0,
			"byteLength":20736,
			"byteOffset":5528,
			"target":34962
		},
		{
			"buffer":0,
			"byteLength":20736,
			"byteOffset":26264,
			"target":34962
		},
		{
			"buffer":0,
			"byteLength":13824,
			"byteOffset":47000,
			"target":34962
		},
		{
			"buffer":0,
			"byteLength":6888,
			"byteOffset":60824,
			"target":34963
		},
		{
			"buffer":0,
			"byteLength":20736,
			"byteOffset":67712,
			"target":34962
		},
		{
			"buffer":0,
			"byteLength":20736,
			"byteOffset":88448,
			"target":34962
		},
		{
			"buffer":0,
			"byteLength":13824,
			"byteOffset":109184,
			"target":34962
		},
		{
			"buffer":0,
			"byteLength":20736,
			"byteOffset":123008,
			"target":34962
		},
		{
			"buffer":0,
			"byteLength":20736,
			"byteOffset":143744,
			"target":34962
		},
		{
			"buffer":0,
			"byteLength":13824,
			"byteOffset":164480,
			"target":34962
		},
		{
			"buffer":0,
			"byteLength":20736,
			"byteOffset":178304,
			"target":34962
		},
		{
			"buffer":0,
			"byteLength":20736,
			"byteOffset":199040,
			"target":34962
		},
		{
			"buffer":0,
			"byteLength":13824,
			"byteOffset":219776,
			"target":34962
		},
		{
			"buffer":0,
			"byteLength":20736,
			"byteOffset":233600,
			"target":34962
		},
		{
			"buffer":0,
			"byteLength":20736,
			"byteOffset":254336,
			"target":34962
		},
		{
			"buffer":0,
			"byteLength":13824,
			"byteOffset":275072,
			"target":34962
		},
		{
			"buffer":0,
			"byteLength":20736,
			"byteOffset":288896,
			"target":34962
		},
		{
			"buffer":0,
			"byteLength":20736,
			"byteOffset":309632,
			"target":34962
		},
		{
			"buffer":0,
			"byteLength":13824,
			"byteOffset":330368,
			"target":34962
		},
		{
			"buffer":0,
			"byteLength":20736,
			"byteOffset":344192,
			"target":34962
		},
		{
			"buffer":0,
			"byteLength":20736,
			"byteOffset":364928,
			"target":34962
		},
		{
			"buffer":0,
			"byteLength":13824,
			"byteOffset":385664,
			"target":34962
		},
		{
			"buffer":0,
			"byteLength":20736,
			"byteOffset":399488,
			"target":34962
		},
		{
			"buffer":0,
			"byteLength":20736,
			"byteOffset":420224,
			"target":34962
		},
		{
			"buffer":0,
			"byteLength":13824,
			"byteOffset":440960,
			"target":34962
		},
		{
			"buffer":0,
			"byteLength":20736,
			"byteOffset":454784,
			"target":34962
		},
		{
			"buffer":0,
			"byteLength":20736,
			"byteOffset":475520,
			"target":34962
		},
		{
			"buffer":0,
			"byteLength":13824,
			"byteOffset":496256,
			"target":34962
		},
		{
			"buffer":0,
			"byteLength":20736,
			"byteOffset":510080,
			"target":34962
		},
		{
			"buffer":0,
			"byteLength":20736,
			"byteOffset":530816,
			"target":34962
		},
		{
			"buffer":0,
			"byteLength":13824,
			"byteOffset":551552,
			"target":34962
		},
		{
			"buffer":0,
			"byteLength":20736,
			"byteOffset":565376,
			"target":34962
		},
		{
			"buffer":0,
			"byteLength":20736,
			"byteOffset":586112,
			"target":34962
		},
		{
			"buffer":0,
			"byteLength":13824,
			"byteOffset":606848,
			"target":34962
		},
		{
			"buffer":0,
			"byteLength":20736,
			"byteOffset":620672,
			"target":34962
		},
		{
			"buffer":0,
			"byteLength":20736,
			"byteOffset":641408,
			"target":34962
		},
		{
			"buffer":0,
			"byteLength":13824,
			"byteOffset":662144,
			"target":34962
		},
		{
			"buffer":0,
			"byteLength":4068,
			"byteOffset":675968,
			"target":34962
		},
		{
			"buffer":0,
			"byteLength":4068,
			"byteOffset":680036,
			"target":34962
		},
		{
			"buffer":0,
			"byteLength":2712,
			"byteOffset":684104,
			"target":34962
		},
		{
			"buffer":0,
			"byteLength":1368,
			"byteOffset":686816,
			"target":34963
		},
		{
			"buffer":0,
			"byteLength":864,
			"byteOffset":688184,
			"target":34962
		},
		{
			"buffer":0,
			"byteLength":864,
			"byteOffset":689048,
			"target":34962
		},
		{
			"buffer":0,
			"byteLength":576,
			"byteOffset":689912,
			"target":34962
		},
		{
			"buffer":0,
			"byteLength":216,
			"byteOffset":690488,
			"target":34963
		},
		{
			"buffer":0,
			"byteLength":912,
			"byteOffset":690704,
			"target":34962
		},
		{
			"buffer":0,
			"byteLength":912,
			"byteOffset":691616,
			"target":34962
		},
		{
			"buffer":0,
			"byteLength":608,
			"byteOffset":692528,
			"target":34962
		},
		{
			"buffer":0,
			"byteLength":228,
			"byteOffset":693136,
			"target":34963
		},
		{
			"buffer":0,
			"byteLength":4128,
			"byteOffset":693364,
			"target":34962
		},
		{
			"buffer":0,
			"byteLength":4128,
			"byteOffset":697492,
			"target":34962
		},
		{
			"buffer":0,
			"byteLength":2752,
			"byteOffset":701620,
			"target":34962
		},
		{
			"buffer":0,
			"byteLength":1056,
			"byteOffset":704372,
			"target":34963
		},
		{
			"buffer":0,
			"byteLength":8,
			"byteOffset":705428
		},
		{
			"buffer":0,
			"byteLength":24,
			"byteOffset":705436
		},
		{
			"buffer":0,
			"byteLength":32,
			"byteOffset":705460
		},
		{
			"buffer":0,
			"byteLength":24,
			"byteOffset":705492
		}
	],
	"samplers":[
		{
			"magFilter":9729,
			"minFilter":9987
		}
	],
	"buffers":[
		{
			"byteLength":705516,
			"uri":"test_ship.bin"
		}
	]
}
