{
	"asset":{
		"generator":"Khronos glTF Blender I/O v5.0.21",
		"version":"2.0"
	},
	"scene":0,
	"scenes":[
		{
			"name":"Scene",
			"nodes":[
				0,
				14
			]
		}
	],
	"nodes":[
		{
			"mesh":0,
			"name":"Cube"
		},
		{
			"mesh":1,
			"name":"Cube.001",
			"scale":[
				0.006273301783949137,
				0.03174407035112381,
				0.18932153284549713
			],
			"translation":[
				0.9955618381500244,
				-0.7859960794448853,
				-0.009397863410413265
			]
		},
		{
			"mesh":2,
			"name":"Cylinder",
			"rotation":[
				-1,
				0,
				0,
				7.549789415861596e-08
			],
			"scale":[
				0.14952298998832703,
				0.14993348717689514,
				0.2576734721660614
			],
			"translation":[
				-1.683500051498413,
				-1.0905699729919434,
				-0.49836355447769165
			]
		},
		{
			"mesh":3,
			"name":"Cylinder.001",
			"rotation":[
				-1,
				0,
				0,
				7.549789415861596e-08
			],
			"scale":[
				0.14952298998832703,
				0.14993348717689514,
				0.2576734721660614
			],
			"translation":[
				-1.6875971555709839,
				-1.0905699729919434,
				0.4956616461277008
			]
		},
		{
			"mesh":4,
			"name":"Cylinder.002",
			"rotation":[
				-1,
				0,
				0,
				7.549789415861596e-08
			],
			"scale":[
				0.14952298998832703,
				0.14993348717689514,
				0.2576734721660614
			],
			"translation":[
				-2.405562162399292,
				-1.0905699729919434,
				0.4956616461277008
			]
		},
		{
			"mesh":5,
			"name":"Cylinder.003",
			"rotation":[
				-1,
				0,
				0,
				7.549789415861596e-08
			],
			"scale":[
				0.14952298998832703,
				0.07048508524894714,
				0.2576734721660614
			],
			"translation":[
				0.7313443422317505,
				-1.169887661933899,
				0.47073596715927124
			]
		},
		{
			"mesh":6,
			"name":"Cylinder.004",
			"rotation":[
				-1,
				0,
				0,
				7.549789415861596e-08
			],
			"scale":[
				0.14952298998832703,
				0.07048508524894714,
				0.2576734721660614
			],
			"translation":[
				0.7313443422317505,
				-1.1698877811431885,
				-0.5186374187469482
			]
		},
		{
			"mesh":7,
			"name":"Cylinder.005",
			"rotation":[
				-1,
				0,
				0,
				7.549789415861596e-08
			],
			"scale":[
				0.14952298998832703,
				0.07048508524894714,
				0.2576734721660614
			],
			"translation":[
				-0.7435975074768066,
				-1.169887661933899,
				-0.4979081451892853
			]
		},
		{
			"mesh":8,
			"name":"Cylinder.006",
			"rotation":[
				-1,
				0,
				0,
				7.549789415861596e-08
			],
			"scale":[
				0.14952298998832703,
				0.14993348717689514,
				0.2576734721660614
			],
			"translation":[
				-2.4014647006988525,
				-1.0905699729919434,
				-0.4983634352684021
			]
		},
		{
			"mesh":9,
			"name":"Cylinder.007",
			"rotation":[
				-1,
				0,
				0,
				7.549789415861596e-08
			],
			"scale":[
				0.14952298998832703,
				0.07048508524894714,
				0.2576734721660614
			],
			"translation":[
				0.23281416296958923,
				-1.169887661933899,
				0.48447638750076294
			]
		},
		{
			"mesh":10,
			"name":"Cylinder.009",
			"rotation":[
				-1,
				0,
				0,
				7.549789415861596e-08
			],
			"scale":[
				0.14952298998832703,
				0.07048508524894714,
				0.2576734721660614
			],
			"translation":[
				0.23281416296958923,
				-1.1698877811431885,
				-0.5066111087799072
			]
		},
		{
			"mesh":11,
			"name":"Cylinder.011",
			"rotation":[
				-1,
				0,
				0,
				7.549789415861596e-08
			],
			"scale":[
				0.14952298998832703,
				0.07048508524894714,
				0.2576734721660614
			],
			"translation":[
				-0.7435975074768066,
				-1.1698877811431885,
				0.49146538972854614
			]
		},
		{
			"mesh":12,
			"name":"Cylinder.012",
			"rotation":[
				-1,
				0,
				0,
				7.549789415861596e-08
			],
			"scale":[
				0.14952298998832703,
				0.07048508524894714,
				0.2576734721660614
			],
			"translation":[
				-0.26222291588783264,
				-1.169887661933899,
				-0.5104734897613525
			]
		},
		{
			"mesh":13,
			"name":"Cylinder.013",
			"rotation":[
				-1,
				0,
				0,
				7.549789415861596e-08
			],
			"scale":[
				0.14952298998832703,
				0.07048508524894714,
				0.2576734721660614
			],
			"translation":[
				-0.26222291588783264,
				-1.169887661933899,
				0.4789000153541565
			]
		},
		{
			"children":[
				1,
				2,
				3,
				4,
				5,
				6,
				7,
				8,
				9,
				10,
				11,
				12,
				13
			],
			"mesh":14,
			"name":"Ship",
			"scale":[
				3.450223684310913,
				2.101851463317871,
				2.0020992755889893
			],
			"translation":[
				-0.14723660051822662,
				2.0818674564361572,
				-0.10321103781461716
			]
		}
	],
	"animations":[
		{
			"channels":[
				{
					"sampler":0,
					"target":{
						"node":14,
						"path":"translation"
					}
				},
				{
					"sampler":1,
					"target":{
						"node":14,
						"path":"rotation"
					}
				},
				{
					"sampler":2,
					"target":{
						"node":14,
						"path":"scale"
					}
				}
			],
			"name":"Ship|Ship|Ship|ShipAction",
			"samplers":[
				{
					"input":61,
					"interpolation":"STEP",
					"output":62
				},
				{
					"input":61,
					"interpolation":"STEP",
					"output":63
				},
				{
					"input":61,
					"interpolation":"STEP",
					"output":64
				}
			]
		}
	],
	"materials":[
		{
			"doubleSided":true,
			"name":"Material",
			"pbrMetallicRoughness":{
				"baseColorFactor":[
					0.800000011920929,
					0.800000011920929,
					0.800000011920929,
					1
				],
				"metallicFactor":0,
				"roughnessFactor":0.5
			}
		},
		{
			"doubleSided":true,
			"name":"metal body",
			"pbrMetallicRoughness":{
				"baseColorFactor":[
					0.1068795770406723,
					0.15646551549434662,
					0.16679984331130981,
					1
				],
				"metallicFactor":0.6909871101379395,
				"roughnessFactor":0.5858368873596191
			}
		},
		{
			"doubleSided":true,
			"name":"metal body.003",
			"pbrMetallicRoughness":{
				"baseColorFactor":[
					0.1068795770406723,
					0.15646551549434662,
					0.16679984331130981,
					1
				],
				"metallicFactor":0.6909871101379395,
				"roughnessFactor":0.5858368873596191
			}
		},
		{
			"doubleSided":true,
			"name":"window.001",
			"pbrMetallicRoughness":{
				"baseColorFactor":[
					0,
					0,
					0,
					1
				],
				"metallicFactor":0,
				"roughnessFactor":0.4000000059604645
			}
		},
		{
			"doubleSided":true,
			"name":"texturepainting",
			"pbrMetallicRoughness":{
				"metallicFactor":0,
				"roughnessFactor":0.5
			}
		},
		{
			"doubleSided":true,
			"name":"rubberarea",
			"pbrMetallicRoughness":{
				"baseColorFactor":[
					0.03495539352297783,
					0.06637194752693176,
					0.045289263129234314,
					1
				],
				"metallicFactor":0,
				"roughnessFactor":0.8562231659889221
			}
		}
	],
	"meshes":[
		{
			"name":"Cube",
			"primitives":[
				{
					"attributes":{
						"POSITION":0,
						"NORMAL":1,
						"TEXCOORD_0":2
					},
					"indices":3,
					"material":0
				}
			]
		},
		{
			"name":"Cube.003",
			"primitives":[
				{
					"attributes":{
						"POSITION":4,
						"NORMAL":5,
						"TEXCOORD_0":6
					},
					"indices":7,
					"material":1
				}
			]
		},
		{
			"name":"Cylinder.001",
			"primitives":[
				{
					"attributes":{
						"POSITION":8,
						"NORMAL":9,
						"TEXCOORD_0":10
					},
					"indices":11,
					"material":1
				}
			]
		},
		{
			"name":"Cylinder.002",
			"primitives":[
				{
					"attributes":{
						"POSITION":12,
						"NORMAL":13,
						"TEXCOORD_0":14
					},
					"indices":11,
					"material":1
				}
			]
		},
		{
			"name":"Cylinder.017",
			"primitives":[
				{
					"attributes":{
						"POSITION":15,
						"NORMAL":16,
						"TEXCOORD_0":17
					},
					"indices":11,
					"material":2
				}
			]
		},
		{
			"name":"Cylinder.004",
			"primitives":[
				{
					"attributes":{
						"POSITION":18,
						"NORMAL":19,
						"TEXCOORD_0":20
					},
					"indices":11,
					"material":1
				}
			]
		},
		{
			"name":"Cylinder.005",
			"primitives":[
				{
					"attributes":{
						"POSITION":21,
						"NORMAL":22,
						"TEXCOORD_0":23
					},
					"indices":11,
					"material":1
				}
			]
		},
		{
			"name":"Cylinder.006",
			"primitives":[
				{
					"attributes":{
						"POSITION":24,
						"NORMAL":25,
						"TEXCOORD_0":26
					},
					"indices":11,
					"material":1
				}
			]
		},
		{
			"name":"Cylinder.018",
			"primitives":[
				{
					"attributes":{
						"POSITION":27,
						"NORMAL":28,
						"TEXCOORD_0":29
					},
					"indices":11,
					"material":2
				}
			]
		},
		{
			"name":"Cylinder.008",
			"primitives":[
				{
					"attributes":{
						"POSITION":30,
						"NORMAL":31,
						"TEXCOORD_0":32
					},
					"indices":11,
					"material":1
				}
			]
		},
		{
			"name":"Cylinder.010",
			"primitives":[
				{
					"attributes":{
						"POSITION":33,
						"NORMAL":34,
						"TEXCOORD_0":35
					},
					"indices":11,
					"material":1
				}
			]
		},
		{
			"name":"Cylinder.012",
			"primitives":[
				{
					"attributes":{
						"POSITION":36,
						"NORMAL":37,
						"TEXCOORD_0":38
					},
					"indices":11,
					"material":1
				}
			]
		},
		{
			"name":"Cylinder.013",
			"primitives":[
				{
					"attributes":{
						"POSITION":39,
						"NORMAL":40,
						"TEXCOORD_0":41
					},
					"indices":11,
					"material":1
				}
			]
		},
		{
			"name":"Cylinder.014",
			"primitives":[
				{
					"attributes":{
						"POSITION":42,
						"NORMAL":43,
						"TEXCOORD_0":44
					},
					"indices":11,
					"material":1
				}
			]
		},
		{
			"name":"Cube.001",
			"primitives":[
				{
					"attributes":{
						"POSITION":45,
						"NORMAL":46,
						"TEXCOORD_0":47
					},
					"indices":48,
					"material":1
				},
				{
					"attributes":{
						"POSITION":49,
						"NORMAL":50,
						"TEXCOORD_0":51
					},
					"indices":52,
					"material":3
				},
				{
					"attributes":{
						"POSITION":53,
						"NORMAL":54,
						"TEXCOORD_0":55
					},
					"indices":56,
					"material":4
				},
				{
					"attributes":{
						"POSITION":57,
						"NORMAL":58,
						"TEXCOORD_0":59
					},
					"indices":60,
					"material":5
				}
			]
		}
	],
	"accessors":[
		{
			"bufferView":0,
			"componentType":5126,
			"count":24,
			"max":[
				1,
				1,
				1
			],
			"min":[
				-1,
				-1,
				-1
			],
			"type":"VEC3"
		},
		{
			"bufferView":1,
			"componentType":5126,
			"count":24,
			"type":"VEC3"
		},
		{
			"bufferView":2,
			"componentType":5126,
			"count":24,
			"type":"VEC2"
		},
		{
			"bufferView":3,
			"componentType":5123,
			"count":36,
			"type":"SCALAR"
		},
		{
			"bufferView":4,
			"componentType":5126,
			"count":154,
			"max":[
				1,
				1,
				1.3300000429153442
			],
			"min":[
				-9.232342720031738,
				-1,
				-1.3300000429153442
			],
			"type":"VEC3"
		},
		{
			"bufferView":5,
			"componentType":5126,
			"count":154,
			"type":"VEC3"
		},
		{
			"bufferView":6,
			"componentType":5126,
			"count":154,
			"type":"VEC2"
		},
		{
			"bufferView":7,
			"componentType":5123,
			"count":300,
			"type":"SCALAR"
		},
		{
			"bufferView":8,
			"componentType":5126,
			"count":1728,
			"max":[
				1.2046095132827759,
				1,
				1.2046093940734863
			],
			"min":[
				-1.2046090364456177,
				-0.9999998211860657,
				-1.2046091556549072
			],
			"type":"VEC3"
		},
		{
			"bufferView":9,
			"componentType":5126,
			"count":1728,
			"type":"VEC3"
		},
		{
			"bufferView":10,
			"componentType":5126,
			"count":1728,
			"type":"VEC2"
		},
		{
			"bufferView":11,
			"componentType":5123,
			"count":3444,
			"type":"SCALAR"
		},
		{
			"bufferView":12,
			"componentType":5126,
			"count":1728,
			"max":[
				1.2046095132827759,
				1,
				1.2046093940734863
			],
			"min":[
				-1.2046090364456177,
				-0.9999998211860657,
				-1.2046091556549072
			],
			"type":"VEC3"
		},
		{
			"bufferView":13,
			"componentType":5126,
			"count":1728,
			"type":"VEC3"
		},
		{
			"bufferView":14,
			"componentType":5126,
			"count":1728,
			"type":"VEC2"
		},
		{
			"bufferView":15,
			"componentType":5126,
			"count":1728,
			"max":[
				1.2046095132827759,
				1,
				1.2046093940734863
			],
			"min":[
				-1.2046090364456177,
				-0.9999998211860657,
				-1.2046091556549072
			],
			"type":"VEC3"
		},
		{
			"bufferView":16,
			"componentType":5126,
			"count":1728,
			"type":"VEC3"
		},
		{
			"bufferView":17,
			"componentType":5126,
			"count":1728,
			"type":"VEC2"
		},
		{
			"bufferView":18,
			"componentType":5126,
			"count":1728,
			"max":[
				1.2046095132827759,
				1,
				1.2046093940734863
			],
			"min":[
				-1.2046090364456177,
				-0.9999998211860657,
				-1.2046091556549072
			],
			"type":"VEC3"
		},
		{
			"bufferView":19,
			"componentType":5126,
			"count":1728,
			"type":"VEC3"
		},
		{
			"bufferView":20,
			"componentType":5126,
			"count":1728,
			"type":"VEC2"
		},
		{
			"bufferView":21,
			"componentType":5126,
			"count":1728,
			"max":[
				1.2046095132827759,
				1,
				1.2046093940734863
			],
			"min":[
				-1.2046090364456177,
				-0.9999998211860657,
				-1.2046091556549072
			],
			"type":"VEC3"
		},
		{
			"bufferView":22,
			"componentType":5126,
			"count":1728,
			"type":"VEC3"
		},
		{
			"bufferView":23,
			"componentType":5126,
			"count":1728,
			"type":"VEC2"
		},
		{
			"bufferView":24,
			"componentType":5126,
			"count":1728,
			"max":[
				1.2046095132827759,
				1,
				1.2046093940734863
			],
			"min":[
				-1.2046090364456177,
				-0.9999998211860657,
				-1.2046091556549072
			],
			"type":"VEC3"
		},
		{
			"bufferView":25,
			"componentType":5126,
			"count":1728,
			"type":"VEC3"
		},
		{
			"bufferView":26,
			"componentType":5126,
			"count":1728,
			"type":"VEC2"
		},
		{
			"bufferView":27,
			"componentType":5126,
			"count":1728,
			"max":[
				1.2046095132827759,
				1,
				1.2046093940734863
			],
			"min":[
				-1.2046090364456177,
				-0.9999998211860657,
				-1.2046091556549072
			],
			"type":"VEC3"
		},
		{
			"bufferView":28,
			"componentType":5126,
			"count":1728,
			"type":"VEC3"
		},
		{
			"bufferView":29,
			"componentType":5126,
			"count":1728,
			"type":"VEC2"
		},
		{
			"bufferView":30,
			"componentType":5126,
			"count":1728,
			"max":[
				1.2046095132827759,
				1,
				1.2046093940734863
			],
			"min":[
				-1.2046090364456177,
				-0.9999998211860657,
				-1.2046091556549072
			],
			"type":"VEC3"
		},
		{
			"bufferView":31,
			"componentType":5126,
			"count":1728,
			"type":"VEC3"
		},
		{
			"bufferView":32,
			"componentType":5126,
			"count":1728,
			"type":"VEC2"
		},
		{
			"bufferView":33,
			"componentType":5126,
			"count":1728,
			"max":[
				1.2046095132827759,
				1,
				1.2046093940734863
			],
			"min":[
				-1.2046090364456177,
				-0.9999998211860657,
				-1.2046091556549072
			],
			"type":"VEC3"
		},
		{
			"bufferView":34,
			"componentType":5126,
			"count":1728,
			"type":"VEC3"
		},
		{
			"bufferView":35,
			"componentType":5126,
			"count":1728,
			"type":"VEC2"
		},
		{
			"bufferView":36,
			"componentType":5126,
			"count":1728,
			"max":[
				1.2046095132827759,
				1,
				1.2046093940734863
			],
			"min":[
				-1.2046090364456177,
				-0.9999998211860657,
				-1.2046091556549072
			],
			"type":"VEC3"
		},
		{
			"bufferView":37,
			"componentType":5126,
			"count":1728,
			"type":"VEC3"
		},
		{
			"bufferView":38,
			"componentType":5126,
			"count":1728,
			"type":"VEC2"
		},
		{
			"bufferView":39,
			"componentType":5126,
			"count":1728,
			"max":[
				1.2046095132827759,
				1,
				1.2046093940734863
			],
			"min":[
				-1.2046090364456177,
				-0.9999998211860657,
				-1.2046091556549072
			],
			"type":"VEC3"
		},
		{
			"bufferView":40,
			"componentType":5126,
			"count":1728,
			"type":"VEC3"
		},
		{
			"bufferView":41,
			"componentType":5126,
			"count":1728,
			"type":"VEC2"
		},
		{
			"bufferView":42,
			"componentType":5126,
			"count":1728,
			"max":[
				1.2046095132827759,
				1,
				1.2046093940734863
			],
			"min":[
				-1.2046090364456177,
				-0.9999998211860657,
				-1.2046091556549072
			],
			"type":"VEC3"
		},
		{
			"bufferView":43,
			"componentType":5126,
			"count":1728,
			"type":"VEC3"
		},
		{
			"bufferView":44,
			"componentType":5126,
			"count":1728,
			"type":"VEC2"
		},
		{
			"bufferView":45,
			"componentType":5126,
			"count":339,
			"max":[
				1.0601500272750854,
				1,
				1.0037322044372559
			],
			"min":[
				-2.997891426086426,
				-1.1070023775100708,
				-1.0037322044372559
			],
			"type":"VEC3"
		},
		{
			"bufferView":46,
			"componentType":5126,
			"count":339,
			"type":"VEC3"
		},
		{
			"bufferView":47,
			"componentType":5126,
			"count":339,
			"type":"VEC2"
		},
		{
			"bufferView":48,
			"componentType":5123,
			"count":684,
			"type":"SCALAR"
		},
		{
			"bufferView":49,
			"componentType":5126,
			"count":72,
			"max":[
				-1.5046827793121338,
				0.795107364654541,
				0.8896905183792114
			],
			"min":[
				-2.9125890731811523,
				-0.07850246876478195,
				-0.8891310095787048
			],
			"type":"VEC3"
		},
		{
			"bufferView":50,
			"componentType":5126,
			"count":72,
			"type":"VEC3"
		},
		{
			"bufferView":51,
			"componentType":5126,
			"count":72,
			"type":"VEC2"
		},
		{
			"bufferView":52,
			"componentType":5123,
			"count":108,
			"type":"SCALAR"
		},
		{
			"bufferView":53,
			"componentType":5126,
			"count":76,
			"max":[
				1.0601500272750854,
				0.8877027034759521,
				0.9438513517379761
			],
			"min":[
				-2.9591705799102783,
				-1.1070023775100708,
				-0.9438513517379761
			],
			"type":"VEC3"
		},
		{
			"bufferView":54,
			"componentType":5126,
			"count":76,
			"type":"VEC3"
		},
		{
			"bufferView":55,
			"componentType":5126,
			"count":76,
			"type":"VEC2"
		},
		{
			"bufferView":56,
			"componentType":5123,
			"count":114,
			"type":"SCALAR"
		},
		{
			"bufferView":57,
			"componentType":5126,
			"count":344,
			"max":[
				1.0021498203277588,
				1.3778090476989746,
				2.4188601970672607
			],
			"min":[
				-1.261109471321106,
				-0.9506659507751465,
				-2.425380229949951
			],
			"type":"VEC3"
		},
		{
			"bufferView":58,
			"componentType":5126,
			"count":344,
			"type":"VEC3"
		},
		{
			"bufferView":59,
			"componentType":5126,
			"count":344,
			"type":"VEC2"
		},
		{
			"bufferView":60,
			"componentType":5123,
			"count":528,
			"type":"SCALAR"
		},
		{
			"bufferView":61,
			"componentType":5126,
			"count":2,
			"max":[
				6.666666666666667
			],
			"min":[
				0.041666666666666664
			],
			"type":"SCALAR"
		},
		{
			"bufferView":62,
			"componentType":5126,
			"count":2,
			"type":"VEC3"
		},
		{
			"bufferView":63,
			"componentType":5126,
			"count":2,
			"type":"VEC4"
		},
		{
			"bufferView":64,
			"componentType":5126,
			"count":2,
			"type":"VEC3"
		}
	],
	"bufferViews":[
		{
			"buffer":0,
			"byteLength":288,
			"byteOffset":0,
			"target":34962
		},
		{
			"buffer":0,
			"byteLength":288,
			"byteOffset":288,
			"target":34962
		},
		{
			"buffer":0,
			"byteLength":192,
			"byteOffset":576,
			"target":34962
		},
		{
			"buffer":0,
			"byteLength":72,
			"byteOffset":768,
			"target":34963
		},
		{
			"buffer":0,
			"byteLength":1848,
			"byteOffset":840,
			"target":34962
		},
		{
			"buffer":0,
			"byteLength":1848,
			"byteOffset":2688,
			"target":34962
		},
		{
			"buffer":0,
			"byteLength":1232,
			"byteOffset":4536,
			"target":34962
		},
		{
			"buffer":0,
			"byteLength":600,
			"byteOffset":5768,
			"target":34963
		},
		{
			"buffer":0,
			"byteLength":20736,
			"byteOffset":6368,
			"target":34962
		},
		{
			"buffer":0,
			"byteLength":20736,
			"byteOffset":27104,
			"target":34962
		},
		{
			"buffer":0,
			"byteLength":13824,
			"byteOffset":47840,
			"target":34962
		},
		{
			"buffer":0,
			"byteLength":6888,
			"byteOffset":61664,
			"target":34963
		},
		{
			"buffer":0,
			"byteLength":20736,
			"byteOffset":68552,
			"target":34962
		},
		{
			"buffer":0,
			"byteLength":20736,
			"byteOffset":89288,
			"target":34962
		},
		{
			"buffer":0,
			"byteLength":13824,
			"byteOffset":110024,
			"target":34962
		},
		{
			"buffer":0,
			"byteLength":20736,
			"byteOffset":123848,
			"target":34962
		},
		{
			"buffer":0,
			"byteLength":20736,
			"byteOffset":144584,
			"target":34962
		},
		{
			"buffer":0,
			"byteLength":13824,
			"byteOffset":165320,
			"target":34962
		},
		{
			"buffer":0,
			"byteLength":20736,
			"byteOffset":179144,
			"target":34962
		},
		{
			"buffer":0,
			"byteLength":20736,
			"byteOffset":199880,
			"target":34962
		},
		{
			"buffer":0,
			"byteLength":13824,
			"byteOffset":220616,
			"target":34962
		},
		{
			"buffer":0,
			"byteLength":20736,
			"byteOffset":234440,
			"target":34962
		},
		{
			"buffer":0,
			"byteLength":20736,
			"byteOffset":255176,
			"target":34962
		},
		{
			"buffer":0,
			"byteLength":13824,
			"byteOffset":275912,
			"target":34962
		},
		{
			"buffer":0,
			"byteLength":20736,
			"byteOffset":289736,
			"target":34962
		},
		{
			"buffer":0,
			"byteLength":20736,
			"byteOffset":310472,
			"target":34962
		},
		{
			"buffer":0,
			"byteLength":13824,
			"byteOffset":331208,
			"target":34962
		},
		{
			"buffer":0,
			"byteLength":20736,
			"byteOffset":345032,
			"target":34962
		},
		{
			"buffer":0,
			"byteLength":20736,
			"byteOffset":365768,
			"target":34962
		},
		{
			"buffer":0,
			"byteLength":13824,
			"byteOffset":386504,
			"target":34962
		},
		{
			"buffer":0,
			"byteLength":20736,
			"byteOffset":400328,
			"target":34962
		},
		{
			"buffer":0,
			"byteLength":20736,
			"byteOffset":421064,
			"target":34962
		},
		{
			"buffer":0,
			"byteLength":13824,
			"byteOffset":441800,
			"target":34962
		},
		{
			"buffer":0,
			"byteLength":20736,
			"byteOffset":455624,
			"target":34962
		},
		{
			"buffer":0,
			"byteLength":20736,
			"byteOffset":476360,
			"target":34962
		},
		{
			"buffer":0,
			"byteLength":13824,
			"byteOffset":497096,
			"target":34962
		},
		{
			"buffer":0,
			"byteLength":20736,
			"byteOffset":510920,
			"target":34962
		},
		{
			"buffer":0,
			"byteLength":20736,
			"byteOffset":531656,
			"target":34962
		},
		{
			"buffer":0,
			"byteLength":13824,
			"byteOffset":552392,
			"target":34962
		},
		{
			"buffer":0,
			"byteLength":20736,
			"byteOffset":566216,
			"target":34962
		},
		{
			"buffer":0,
			"byteLength":20736,
			"byteOffset":586952,
			"target":34962
		},
		{
			"buffer":0,
			"byteLength":13824,
			"byteOffset":607688,
			"target":34962
		},
		{
			"buffer":0,
			"byteLength":20736,
			"byteOffset":621512,
			"target":34962
		},
		{
			"buffer":0,
			"byteLength":20736,
			"byteOffset":642248,
			"target":34962
		},
		{
			"buffer":0,
			"byteLength":13824,
			"byteOffset":662984,
			"target":34962
		},
		{
			"buffer":0,
			"byteLength":4068,
			"byteOffset":676808,
			"target":34962
		},
		{
			"buffer":0,
			"byteLength":4068,
			"byteOffset":680876,
			"target":34962
		},
		{
			"buffer":0,
			"byteLength":2712,
			"byteOffset":684944,
			"target":34962
		},
		{
			"buffer":0,
			"byteLength":1368,
			"byteOffset":687656,
			"target":34963
		},
		{
			"buffer":0,
			"byteLength":864,
			"byteOffset":689024,
			"target":34962
		},
		{
			"buffer":0,
			"byteLength":864,
			"byteOffset":689888,
			"target":34962
		},
		{
			"buffer":0,
			"byteLength":576,
			"byteOffset":690752,
			"target":34962
		},
		{
			"buffer":0,
			"byteLength":216,
			"byteOffset":691328,
			"target":34963
		},
		{
			"buffer":0,
			"byteLength":912,
			"byteOffset":691544,
			"target":34962
		},
		{
			"buffer":0,
			"byteLength":912,
			"byteOffset":692456,
			"target":34962
		},
		{
			"buffer":0,
			"byteLength":608,
			"byteOffset":693368,
			"target":34962
		},
		{
			"buffer":0,
			"byteLength":228,
			"byteOffset":693976,
			"target":34963
		},
		{
			"buffer":0,
			"byteLength":4128,
			"byteOffset":694204,
			"target":34962
		},
		{
			"buffer":0,
			"byteLength":4128,
			"byteOffset":698332,
			"target":34962
		},
		{
			"buffer":0,
			"byteLength":2752,
			"byteOffset":702460,
			"target":34962
		},
		{
			"buffer":0,
			"byteLength":1056,
			"byteOffset":705212,
			"target":34963
		},
		{
			"buffer":0,
			"byteLength":8,
			"byteOffset":706268
		},
		{
			"buffer":0,
			"byteLength":24,
			"byteOffset":706276
		},
		{
			"buffer":0,
			"byteLength":32,
			"byteOffset":706300
		},
		{
			"buffer":0,
			"byteLength":24,
			"byteOffset":706332
		}
	],
	"buffers":[
		{
			"byteLength":706356,
			"uri":"data:application/octet-stream;base64,"
		}
	]
}
